<svg opacity="0.5" height="200pt" width="200pt" viewBox="-40 0 496 496" xmlns="http://www.w3.org/2000/svg"><path d="m408 392h-56v-352c0-22.054688-17.945312-40-40-40h-272c-22.054688 0-40 17.945312-40 40v16c0 4.425781 3.574219 8 8 8h56v392c0 22.054688 17.945312 40 40 40h272c22.054688 0 40-17.945312 40-40v-56c0-4.425781-3.574219-8-8-8zm-392-352c0-13.230469 10.769531-24 24-24h240.015625c-5.03125 6.6875-8.015625 15-8.015625 24v8h-256zm64 416v-392h200c4.425781 0 8-3.574219 8-8v-16c0-13.230469 10.769531-24 24-24s24 10.769531 24 24v416c0 9.039062 3.128906 17.296875 8.207031 24h-240.207031c-13.230469 0-24-10.769531-24-24zm320 0c0 13.230469-10.769531 24-24 24s-24-10.769531-24-24v-48h48zm0 0"/><path d="m312 384h-208c-4.425781 0-8 3.574219-8 8v64c0 4.425781 3.574219 8 8 8h208c4.425781 0 8-3.574219 8-8v-64c0-4.425781-3.574219-8-8-8zm-8 64h-192v-48h192zm0 0"/><path d="m96 352h120v16h-120zm0 0"/><path d="m96 320h120v16h-120zm0 0"/><path d="m96 288h120v16h-120zm0 0"/><path d="m96 256h120v16h-120zm0 0"/><path d="m96 224h120v16h-120zm0 0"/><path d="m288 256c8.824219 0 16 7.175781 16 16h16c0-14.871094-10.230469-27.289062-24-30.863281v-17.136719h-16v17.136719c-13.769531 3.574219-24 15.992187-24 30.863281 0 17.648438 14.351562 32 32 32 8.824219 0 16 7.175781 16 16s-7.175781 16-16 16-16-7.175781-16-16h-16c0 14.871094 10.230469 27.289062 24 30.863281v17.136719h16v-17.136719c13.769531-3.574219 24-15.992187 24-30.863281 0-17.648438-14.351562-32-32-32-8.824219 0-16-7.175781-16-16s7.175781-16 16-16zm0 0"/><path d="m312 80h-208c-4.425781 0-8 3.574219-8 8v48c0 4.425781 3.574219 8 8 8h208c4.425781 0 8-3.574219 8-8v-48c0-4.425781-3.574219-8-8-8zm-8 48h-192v-32h192zm0 0"/></svg>
