<svg height="480pt" viewBox="-3 0 480 480" width="480pt" xmlns="http://www.w3.org/2000/svg"><path d="m469.074219 152.335938c-4.558594-5.289063-11.195313-8.332032-18.179688-8.335938h-5.4375v-72c0-13.253906-10.746093-24-24-24h-197.335937l-57.601563-43.199219c-4.15625-3.109375-9.207031-4.7929685-14.398437-4.800781h-98.664063c-13.253906 0-24 10.746094-24 24v120h-5.441406c-7 .007812-13.652344 3.066406-18.214844 8.378906-4.558593 5.308594-6.578125 12.347656-5.527343 19.269532l43.144531 272.121093c1.808593 11.675781 11.882812 20.277344 23.703125 20.230469h138.335937v-16h-138.335937c-3.933594 0-7.285156-2.859375-7.90625-6.742188l-43.125-272c-.351563-2.316406.324218-4.664062 1.847656-6.441406 1.519531-1.777344 3.738281-2.804687 6.078125-2.816406h197.441406v16h16v-16h213.4375c2.320313.011719 4.523438 1.027344 6.042969 2.777344 1.519531 1.753906 2.210938 4.078125 1.894531 6.375l-43.136719 272.09375c-.613281 3.890625-3.964843 6.753906-7.902343 6.753906h-138.335938v16h138.335938c11.820312.046875 21.898437-8.558594 23.703125-20.238281l43.152344-272.195313c1.03125-6.914062-1.003907-13.9375-5.574219-19.230468zm-415.617188-136.335938h98.664063c1.730468.003906 3.414062.566406 4.800781 1.601562l59.734375 44.796876c1.386719 1.039062 3.070312 1.601562 4.800781 1.601562h200c4.417969 0 8 3.582031 8 8v40h-384v-88c0-4.417969 3.582031-8 8-8zm-8 128v-16h384v16zm0 0"/><path d="m237.457031 176h16v16h-16zm0 0"/><path d="m221.457031 192h16v16h-16zm0 0"/><path d="m237.457031 208h16v16h-16zm0 0"/><path d="m221.457031 224h16v16h-16zm0 0"/><path d="m237.457031 240h16v16h-16zm0 0"/><path d="m221.457031 256h16v16h-16zm0 0"/><path d="m237.457031 272h16v16h-16zm0 0"/><path d="m221.457031 288h16v16h-16zm0 0"/><path d="m237.457031 336h16v16h-16zm0 0"/><path d="m221.457031 352h16v16h-16zm0 0"/><path d="m237.457031 368h16v16h-16zm0 0"/><path d="m237.457031 400h16v16h-16zm0 0"/><path d="m221.457031 416h16v16h-16zm0 0"/><path d="m221.457031 384h16v16h-16zm0 0"/><path d="m237.457031 304h16v16h-16zm0 0"/><path d="m221.457031 320h16v16h-16zm0 0"/><path d="m245.457031 456c0 4.417969-3.582031 8-8 8s-8-3.582031-8-8v-16h-16v16c0 13.253906 10.746094 24 24 24 13.253907 0 24-10.746094 24-24v-16h-16zm0 0"/></svg>